<?xml version="1.0" encoding="UTF-8"?>
<svg width="100px" height="100px" viewBox="0 0 100 100" version="1.1" xmlns="http://www.w3.org/2000/svg" xmlns:xlink="http://www.w3.org/1999/xlink">
    <!-- Generator: Sketch 52.6 (67491) - http://www.bohemiancoding.com/sketch -->
    <title>Artboard</title>
    <desc>Created with Sketch.</desc>
    <g id="Artboard" stroke="none" stroke-width="1" fill="none" fill-rule="evenodd">
        <g id="yarn" fill-rule="nonzero">
            <path d="M50,0 C77.6061776,0 100,22.3938224 100,50 C100,77.6061776 77.6061776,100 50,100 C22.3938224,100 0,77.6061776 0,50 C0,22.3938224 22.3938224,0 50,0 Z" id="Shape" fill="#2C8EBB"></path>
            <path d="M84.015444,65.1544402 C83.6679537,62.4131274 81.3513514,60.5212355 78.3783784,60.5598456 C73.9382239,60.6177606 70.2123552,62.9150579 67.7413127,64.4401544 C66.7760618,65.03861 65.9459459,65.4826255 65.2316602,65.8108108 C65.3861004,63.5714286 65.2509653,60.6370656 64.0926641,57.4131274 C62.6833977,53.5521236 60.7915058,51.1776062 59.4401544,49.8069498 C61.003861,47.5289575 63.1467181,44.2084942 64.1505792,39.0733591 C65.019305,34.6911197 64.7490347,27.8764479 62.7606178,24.0540541 C62.3552124,23.2818533 61.6795367,22.7220077 60.8301158,22.4903475 C60.4826255,22.3938224 59.8262548,22.2007722 58.5328185,22.5675676 C56.5830116,18.5328185 55.9073359,18.1081081 55.3861004,17.7606178 C54.3050193,17.0656371 53.030888,16.9111969 51.8339768,17.3552124 C50.2316602,17.9343629 48.8610039,19.4787645 47.5675676,22.2200772 C47.3745174,22.6254826 47.2007722,23.011583 47.046332,23.3976834 C44.5945946,23.5714286 40.7335907,24.4594595 37.4710425,27.992278 C37.0656371,28.4362934 36.2741313,28.7644788 35.4440154,29.0733591 L35.4633205,29.0733591 C33.7644788,29.6718147 32.992278,31.0617761 32.046332,33.5714286 C30.7335907,37.0849421 32.0849421,40.5405405 33.4169884,42.7799228 C31.6023166,44.4015444 29.1891892,46.988417 27.9150579,50.019305 C26.3320463,53.7644788 26.1583012,57.4324324 26.2162162,59.4208494 C24.8648649,60.8494208 22.7799228,63.5328185 22.5482625,66.5444015 C22.2393822,70.7528958 23.7644788,73.6100386 24.4401544,74.6525097 C24.6332046,74.96139 24.8455598,75.2123552 25.0772201,75.4633205 C25,75.984556 24.980695,76.5444015 25.0965251,77.1235521 C25.3474903,78.4749035 26.1969112,79.5752896 27.4903475,80.2702703 C30.03861,81.6216216 33.5907336,82.2007722 36.3320463,80.8301158 C37.3166023,81.8725869 39.1119691,82.8764479 42.3745174,82.8764479 L42.5675676,82.8764479 C43.3976834,82.8764479 53.9382239,82.3166023 57.007722,81.5637066 C58.3783784,81.2355212 59.3243243,80.6563707 59.9420849,80.1351351 C61.9111969,79.5173745 67.3552124,77.6640927 72.4903475,74.3436293 C76.1196911,71.988417 77.3745174,71.4864865 80.0772201,70.8301158 C82.7027027,70.1930502 84.3436293,67.7992278 84.015444,65.1544402 Z M79.4208494,67.992278 C76.3320463,68.7258687 74.7683398,69.4015444 70.9459459,71.8918919 C64.980695,75.7528958 58.4555985,77.5482625 58.4555985,77.5482625 C58.4555985,77.5482625 57.9150579,78.3590734 56.3513514,78.7258687 C53.6486486,79.3822394 43.4749035,79.9420849 42.5482625,79.96139 C40.0579151,79.980695 38.5328185,79.3243243 38.1081081,78.3011583 C36.8146718,75.2123552 39.96139,73.8610039 39.96139,73.8610039 C39.96139,73.8610039 39.2664093,73.4362934 38.8610039,73.0501931 C38.4942085,72.6833977 38.1081081,71.9498069 37.992278,72.2200772 C37.5096525,73.3976834 37.2586873,76.2741313 35.965251,77.5675676 C34.1891892,79.3629344 30.8301158,78.7644788 28.8416988,77.7220077 C26.6602317,76.5637066 28.996139,73.8416988 28.996139,73.8416988 C28.996139,73.8416988 27.8185328,74.5366795 26.8725869,73.1081081 C26.023166,71.7953668 25.2316602,69.5559846 25.4440154,66.7953668 C25.6756757,63.6486486 29.1891892,60.5984556 29.1891892,60.5984556 C29.1891892,60.5984556 28.5714286,55.9459459 30.5984556,51.1776062 C32.4324324,46.8339768 37.3745174,43.3397683 37.3745174,43.3397683 C37.3745174,43.3397683 33.2239382,38.7451737 34.7683398,34.6138996 C35.7722008,31.9111969 36.1776062,31.9305019 36.5057915,31.8146718 C37.6640927,31.3706564 38.7837838,30.8880309 39.6138996,29.980695 C43.7644788,25.5019305 49.0540541,26.3513514 49.0540541,26.3513514 C49.0540541,26.3513514 51.5637066,18.7258687 53.8803089,20.2123552 C54.5945946,20.6756757 57.1621622,26.3899614 57.1621622,26.3899614 C57.1621622,26.3899614 59.9034749,24.7876448 60.2123552,25.3861004 C61.8725869,28.6100386 62.0656371,34.7683398 61.3320463,38.5135135 C60.0965251,44.6911197 57.007722,48.011583 55.7722008,50.0965251 C55.4826255,50.5791506 59.0926641,52.1042471 61.3706564,58.4169884 C63.4749035,64.1891892 61.6023166,69.034749 61.9305019,69.5752896 C61.988417,69.6718147 62.007722,69.7104247 62.007722,69.7104247 C62.007722,69.7104247 64.4208494,69.9034749 69.2664093,66.9111969 C71.8532819,65.3088803 74.9227799,63.5135135 78.4169884,63.4749035 C81.7953668,63.4169884 81.969112,67.3745174 79.4208494,67.992278 Z" id="Shape" fill="#FFFFFF"></path>
        </g>
    </g>
</svg>