<svg id="Layer_1" enable-background="new 0 0 50 50" height="512" viewBox="0 0 50 50" width="512" xmlns="http://www.w3.org/2000/svg"><g><path d="m37.7 43.5v-11.7c-.4-.2-.7-.5-.9-.9h-9.8c-.4.7-1.2 1.2-2 1.2s-1.6-.5-2-1.2h-9.9c-.2.4-.5.7-.9.9v11.7h-2.2v-11.7c-.7-.4-1.2-1.2-1.2-2 0-1.3 1-2.3 2.3-2.3.8 0 1.6.5 2 1.2h9.9c.2-.4.5-.7.9-.9v-11h2.3v11c.4.2.7.5.9.9h9.9c.4-.7 1.2-1.2 2-1.2 1.3 0 2.3 1 2.3 2.3 0 .8-.5 1.6-1.2 2v11.7z" fill="#676767"/><g><path d="m46.7 36.8h-9.1c-.4 0-.7-.2-.9-.6l-.2-.6c-.1-.4-.5-.6-.9-.6h-4.6c-.5 0-.9.4-.9.9v12.1c0 .5.4.9.9.9h15.7c.5 0 .9-.4.9-.9v-10.3c.1-.5-.4-.9-.9-.9z" fill="#e7b95e"/><path d="m48.1 39.1h-18.4c-.6 0-1 .5-.9 1.1l1.2 8c.1.5.5.8.9.8h16c.5 0 .8-.3.9-.8l1.2-8c.1-.6-.4-1.1-.9-1.1z" fill="#ffcc67"/></g><path d="m36.9 3.7h-13.8c-.6 0-1.1-.4-1.3-.9l-.4-.9c-.1-.5-.7-.9-1.2-.9h-7.1c-.8 0-1.4.6-1.4 1.4v18.4c0 .8.6 1.4 1.4 1.4h23.8c.8 0 1.4-.6 1.4-1.4v-15.7c0-.8-.6-1.4-1.4-1.4z" fill="#e7b95e"/><path d="m38.9 7.2h-27.8c-.9 0-1.5.8-1.4 1.6l1.8 12.2c.1.7.7 1.2 1.4 1.2h24.2c.7 0 1.3-.5 1.4-1.2l1.8-12.1c.1-.9-.5-1.7-1.4-1.7z" fill="#ffcc67"/><g><path d="m19 36.8h-9.1c-.4 0-.7-.2-.9-.6l-.2-.6c-.1-.4-.5-.6-.9-.6h-4.6c-.5 0-.9.4-.9.9v12.1c0 .5.4.9.9.9h15.7c.5 0 .9-.4.9-.9v-10.3c0-.5-.4-.9-.9-.9z" fill="#e7b95e"/><path d="m20.3 39.1h-18.4c-.6 0-1 .5-.9 1.1l1.2 8c.1.5.5.8.9.8h16c.5 0 .8-.3.9-.8l1.2-8c.1-.6-.3-1.1-.9-1.1z" fill="#ffcc67"/></g><circle cx="25" cy="14.7" fill="#fff" r="5.6"/><path d="m29.1 14.2-.6-.1c-.1 0-.2-.1-.2-.2s0-.1 0-.2 0-.2.1-.3l.5-.4c.1-.1.1-.2.1-.3l-.3-.5c-.1-.1-.2-.2-.3-.1l-.6.2c-.1 0-.2 0-.3-.1 0 0-.1-.1-.1-.1-.1-.1-.1-.2-.1-.3l.2-.6c0-.1 0-.2-.1-.3l-.5-.3c-.1-.1-.2 0-.3.1l-.4.5c-.1.1-.2.1-.3.1s-.1 0-.2 0-.2-.1-.2-.2l-.1-.6c0-.1-.1-.2-.2-.2h-.5c-.1 0-.2.1-.2.2l-.1.6c0 .1-.1.2-.2.2s-.1 0-.2 0-.2 0-.3-.1l-.4-.5c-.1-.1-.2-.1-.3-.1l-.5.3c-.1.1-.2.2-.1.3l.2.6c0 .1 0 .2-.1.3 0 0-.1.1-.1.1-.1.1-.2.1-.3.1l-.6-.2c-.1 0-.2 0-.3.1l-.3.5c-.1.1 0 .2.1.3l.5.4c.1.1.1.2.1.3v.2c0 .1-.1.2-.2.2l-.6.1c-.1 0-.2.1-.2.2v.6c0 .1.1.2.2.2l.6.1c.1 0 .2.1.2.2v.2c0 .1 0 .2-.1.3l-.5.4c-.1.1-.1.2-.1.3l.3.5c.1.1.2.2.3.1l.6-.2c.1 0 .2 0 .3.1 0 0 .1.1.1.1.1.1.1.2.1.3l-.1.4c0 .1 0 .2.1.3l.5.3c.1.1.2 0 .3-.1l.4-.5c.1-.1.2-.1.3-.1h.2c.1 0 .2.1.2.2l.1.6c0 .1.1.2.2.2h.5c.1 0 .2-.1.2-.2l.1-.6c0-.1.1-.2.2-.2h.2c.1 0 .2 0 .3.1l.4.5c.1.1.2.1.3.1l.5-.3c.1-.1.2-.2.1-.3l-.2-.6c0-.1 0-.2.1-.3 0 0 .1-.1.1-.1.1-.1.2-.1.3-.1l.6.2c.1 0 .2 0 .3-.1l.3-.5c.1-.1 0-.2-.1-.3l-.5-.4c-.1-.1-.1-.2-.1-.3s0-.1 0-.2.1-.2.2-.2l.6-.1c.1 0 .2-.1.2-.2v-.5c-.1 0-.2-.1-.3-.1zm-4.1 2.5c-1.1 0-2-.9-2-2s.9-2 2-2 2 .9 2 2-.9 2-2 2z" fill="#ed7161"/></g></svg>