<svg id="Capa_1" enable-background="new 0 0 512 512" height="512" viewBox="0 0 512 512" width="512" xmlns="http://www.w3.org/2000/svg"><g><g><path d="m256 136.8 12-11.798-12-18.202c-82.27 0-149.2 66.93-149.2 149.2s66.93 149.2 149.2 149.2l12-18.202-12-11.798c-65.72 0-119.2-53.47-119.2-119.2s53.48-119.2 119.2-119.2z" fill="#d5e8fe"/></g><g><path d="m256 106.8v30c65.72 0 119.2 53.47 119.2 119.2s-53.48 119.2-119.2 119.2v30c82.27 0 149.2-66.93 149.2-149.2s-66.93-149.2-149.2-149.2z" fill="#aac7e0"/></g><g><path d="m256 30 12-15-12-15c-68.38 0-132.67 26.63-181.02 74.98s-74.98 112.64-74.98 181.02 26.63 132.67 74.98 181.02 112.64 74.98 181.02 74.98l12-15-12-15c-124.62 0-226-101.38-226-226s101.38-226 226-226z" fill="#d5e8fe"/></g><g><path d="m437.02 74.98c-48.35-48.35-112.64-74.98-181.02-74.98v30c124.62 0 226 101.38 226 226s-101.38 226-226 226v30c68.38 0 132.67-26.63 181.02-74.98s74.98-112.64 74.98-181.02-26.63-132.67-74.98-181.02z" fill="#aac7e0"/></g><circle cx="161.109" cy="161.109" fill="#a5e887" r="36.107"/><circle cx="350.891" cy="350.891" fill="#ffb454" r="36.107"/><path d="m256 217.69 18 38.312-18 38.309c-21.16 0-38.31-17.15-38.31-38.31s17.15-38.311 38.31-38.311z" fill="#ff7c48"/><path d="m294.31 256c0 21.16-17.15 38.31-38.31 38.31v-76.62c21.16 0 38.31 17.15 38.31 38.31z" fill="#ff415b"/></g></svg>