<svg height="512pt" viewBox="0 0 512.05333 512" width="512pt" xmlns="http://www.w3.org/2000/svg"><g fill="#cfd8dc"><path d="m341.332031 448.027344h-288c-29.394531 0-53.332031-23.9375-53.332031-53.335938v-293.332031c0-11.773437 9.558594-21.332031 21.332031-21.332031 11.777344 0 21.335938 9.558594 21.335938 21.332031v293.332031c0 5.890625 4.777343 10.667969 10.664062 10.667969h288c11.757813 0 21.335938-9.578125 21.335938-21.332031v-277.335938c0-11.773437 9.554687-21.332031 21.332031-21.332031s21.332031 9.558594 21.332031 21.332031v277.335938c0 35.285156-28.714843 64-64 64zm0 0"/><path d="m385.492188 234.691406h-364.160157c-11.773437 0-21.332031-9.554687-21.332031-21.332031 0-11.773437 9.558594-21.332031 21.332031-21.332031h364.160157c11.777343 0 21.335937 9.558594 21.335937 21.332031 0 11.777344-9.558594 21.332031-21.335937 21.332031zm0 0"/><path d="m384 341.359375h-362.667969c-11.773437 0-21.332031-9.558594-21.332031-21.332031 0-11.777344 9.558594-21.335938 21.332031-21.335938h362.667969c11.777344 0 21.332031 9.558594 21.332031 21.335938 0 11.773437-9.554687 21.332031-21.332031 21.332031zm0 0"/><path d="m202.667969 448.027344c-11.777344 0-21.335938-9.558594-21.335938-21.335938v-298.664062c0-11.777344 9.558594-21.335938 21.335938-21.335938 11.773437 0 21.332031 9.558594 21.332031 21.335938v298.664062c0 11.777344-9.558594 21.335938-21.332031 21.335938zm0 0"/></g><path d="m357.332031.0273438h-309.332031c-26.515625 0-48 21.4804682-48 48.0000002v80h405.332031v-80c0-26.519532-21.480469-48.0000002-48-48.0000002zm0 0" fill="#2196f3"/><path d="m405.972656 448.667969-54.1875 53.972656c-6.183594 6.1875-14.503906 9.386719-22.613281 9.386719-8.320313 0-16.425781-3.199219-22.613281-9.386719l-75.519532-75.308594c-5.972656-6.183593-9.386718-14.292969-9.386718-22.824219 0-8.535156 3.414062-16.429687 9.386718-22.613281l54.1875-53.972656zm0 0" fill="#64b5f6"/><path d="m502.613281 351.8125-96.640625 96.855469-120.746094-120.746094 96.640626-96.855469c12.160156-11.945312 33.28125-11.945312 45.441406 0l75.304687 75.519532c12.585938 12.375 12.585938 32.640624 0 45.226562zm0 0" fill="#2196f3"/></svg>