<svg id="Layer_1" enable-background="new 0 0 512 512" height="512" viewBox="0 0 512 512" width="512" xmlns="http://www.w3.org/2000/svg"><g><path d="m432.733 512h-353.466c-43.708 0-79.267-35.559-79.267-79.267v-289.2c0-8.284 6.716-15 15-15h482c8.284 0 15 6.716 15 15v289.2c0 43.708-35.559 79.267-79.267 79.267z" fill="#f5faff"/><path d="m512 432.733v-289.2c0-8.284-6.716-15-15-15h-241v383.467h176.733c43.708 0 79.267-35.559 79.267-79.267z" fill="#ebe9eb"/><path d="m497 158.533h-482c-8.284 0-15-6.716-15-15v-32.133c0-43.708 35.559-79.267 79.267-79.267h353.467c43.707.001 79.266 35.559 79.266 79.267v32.133c0 8.284-6.716 15-15 15z" fill="#96ff82"/><path d="m512 143.533v-32.133c0-43.708-35.559-79.267-79.267-79.267h-176.733v126.399h241c8.284.001 15-6.715 15-14.999z" fill="#37cb78"/><path d="m111.4 94.267c-8.284 0-15-6.716-15-15v-64.267c0-8.284 6.716-15 15-15s15 6.716 15 15v64.267c0 8.284-6.715 15-15 15z" fill="#00508c"/><path d="m400.6 94.267c-8.284 0-15-6.716-15-15v-64.267c0-8.284 6.716-15 15-15s15 6.716 15 15v64.267c0 8.284-6.716 15-15 15z" fill="#001e28"/><path d="m207.8 94.267c-8.284 0-15-6.716-15-15v-64.267c0-8.284 6.716-15 15-15s15 6.716 15 15v64.267c0 8.284-6.716 15-15 15z" fill="#00508c"/><path d="m304.2 94.267c-8.284 0-15-6.716-15-15v-64.267c0-8.284 6.716-15 15-15s15 6.716 15 15v64.267c0 8.284-6.716 15-15 15z" fill="#001e28"/><g><path d="m256 447.733c70.285 0 127.467-57.182 127.467-127.467s-57.182-127.466-127.467-127.466-127.467 57.182-127.467 127.467 57.182 127.466 127.467 127.466z" fill="#fff16b"/><path d="m256 447.733c70.285 0 127.467-57.182 127.467-127.467s-57.182-127.466-127.467-127.466z" fill="#ffd845"/><path d="m255.999 379.33c21.914 0 43.351-8.88 58.813-24.363 5.854-5.861 5.848-15.359-.014-21.213-5.862-5.855-15.36-5.848-21.213.014-9.878 9.89-23.577 15.563-37.587 15.563-14.009 0-27.708-5.672-37.586-15.563-5.855-5.863-15.352-5.868-21.213-.014s-5.868 15.352-.014 21.213c15.464 15.483 36.901 24.363 58.814 24.363z" fill="#00508c"/><circle cx="223.866" cy="288.133" fill="#00508c" r="15"/><g fill="#001e28"><circle cx="288.133" cy="288.133" r="15"/><path d="m293.586 333.767c-9.878 9.89-23.577 15.562-37.586 15.563v30c21.914 0 43.35-8.88 58.813-24.363 5.854-5.861 5.848-15.359-.014-21.213-5.862-5.856-15.361-5.849-21.213.013z"/></g></g></g></svg>