<?xml version="1.0" encoding="iso-8859-1"?>
<!-- Generator: Adobe Illustrator 19.0.0, SVG Export Plug-In . SVG Version: 6.00 Build 0)  -->
<svg version="1.1" id="Layer_1" xmlns="http://www.w3.org/2000/svg" xmlns:xlink="http://www.w3.org/1999/xlink" x="0px" y="0px"
	 viewBox="0 0 512 512" style="enable-background:new 0 0 512 512;" xml:space="preserve">
<path style="fill:#F5F5F5;" d="M465.565,437.089H46.435C20.83,437.089,0,416.258,0,390.654V196.611c0-8.284,6.716-15,15-15h482
	c8.284,0,15,6.716,15,15v194.042C512,416.258,491.17,437.089,465.565,437.089z"/>
<path style="fill:#EEEEEE;" d="M497,181.611H256v255.478h209.565c25.604,0,46.435-20.831,46.435-46.435V196.611
	C512,188.327,505.284,181.611,497,181.611z"/>
<path style="fill:#FF3937;" d="M512,211.611H0v-72.436C0,113.53,20.79,92.74,46.435,92.74h419.13
	c25.645,0,46.435,20.79,46.435,46.435V211.611z"/>
<path style="fill:#FF0A0D;" d="M512,139.176c0-25.645-20.79-46.435-46.435-46.435H256v118.871h256V139.176z"/>
<g>
	<path style="fill:#3A569B;" d="M110.584,140.57c-8.284,0-15-6.716-15-15V89.911c0-8.284,6.716-15,15-15s15,6.716,15,15v35.659
		C125.584,133.854,118.868,140.57,110.584,140.57z"/>
	<path style="fill:#3A569B;" d="M207.528,140.57c-8.284,0-15-6.716-15-15V89.911c0-8.284,6.716-15,15-15s15,6.716,15,15v35.659
		C222.528,133.854,215.813,140.57,207.528,140.57z"/>
</g>
<g>
	<path style="fill:#68EDFF;" d="M128.235,305.197H87.021c-8.284,0-15-6.716-15-15s6.716-15,15-15h41.214c8.284,0,15,6.716,15,15
		S136.52,305.197,128.235,305.197z"/>
	<path style="fill:#68EDFF;" d="M227.15,305.197h-41.215c-8.284,0-15-6.716-15-15s6.716-15,15-15h41.215c8.284,0,15,6.716,15,15
		S235.435,305.197,227.15,305.197z"/>
	<path style="fill:#68EDFF;" d="M128.235,373.503H87.021c-8.284,0-15-6.716-15-15s6.716-15,15-15h41.214c8.284,0,15,6.716,15,15
		S136.52,373.503,128.235,373.503z"/>
	<path style="fill:#68EDFF;" d="M227.15,373.503h-41.215c-8.284,0-15-6.716-15-15s6.716-15,15-15h41.215c8.284,0,15,6.716,15,15
		S235.435,373.503,227.15,373.503z"/>
</g>
<g>
	<path style="fill:#334A8C;" d="M304.472,140.57c-8.284,0-15-6.716-15-15V89.911c0-8.284,6.716-15,15-15s15,6.716,15,15v35.659
		C319.472,133.854,312.756,140.57,304.472,140.57z"/>
	<path style="fill:#334A8C;" d="M401.416,140.57c-8.284,0-15-6.716-15-15V89.911c0-8.284,6.716-15,15-15s15,6.716,15,15v35.659
		C416.416,133.854,409.7,140.57,401.416,140.57z"/>
</g>
<g>
	<path style="fill:#17CEFF;" d="M326.064,305.197H284.85c-8.284,0-15-6.716-15-15s6.716-15,15-15h41.215c8.284,0,15,6.716,15,15
		S334.349,305.197,326.064,305.197z"/>
	<path style="fill:#17CEFF;" d="M424.979,305.197h-41.214c-8.284,0-15-6.716-15-15s6.716-15,15-15h41.214c8.284,0,15,6.716,15,15
		S433.263,305.197,424.979,305.197z"/>
	<path style="fill:#17CEFF;" d="M326.064,373.503H284.85c-8.284,0-15-6.716-15-15s6.716-15,15-15h41.215c8.284,0,15,6.716,15,15
		S334.349,373.503,326.064,373.503z"/>
	<path style="fill:#17CEFF;" d="M424.979,373.503h-41.214c-8.284,0-15-6.716-15-15s6.716-15,15-15h41.214c8.284,0,15,6.716,15,15
		S433.263,373.503,424.979,373.503z"/>
</g>
<g>
</g>
<g>
</g>
<g>
</g>
<g>
</g>
<g>
</g>
<g>
</g>
<g>
</g>
<g>
</g>
<g>
</g>
<g>
</g>
<g>
</g>
<g>
</g>
<g>
</g>
<g>
</g>
<g>
</g>
</svg>
