<svg height="512" viewBox="0 0 512 512" width="512" xmlns="http://www.w3.org/2000/svg" xmlns:xlink="http://www.w3.org/1999/xlink"><linearGradient id="New_Gradient_Swatch_4" gradientUnits="userSpaceOnUse" x1="77.809" x2="434.191" y1="434.191" y2="77.809"><stop offset=".011" stop-color="#cacad5"/><stop offset="1" stop-color="#ededf1"/></linearGradient><linearGradient id="New_Gradient_Swatch_13" gradientUnits="userSpaceOnUse" x1="126.739" x2="407.976" y1="385.261" y2="104.024"><stop offset="0" stop-color="#d46669"/><stop offset="1" stop-color="#dd888a"/></linearGradient><linearGradient id="New_Gradient_Swatch_13-2" x1="-5.898" x2="275.339" xlink:href="#New_Gradient_Swatch_13" y1="252.623" y2="-28.614"/><linearGradient id="New_Gradient_Swatch_13-4" x1="259.377" x2="540.614" xlink:href="#New_Gradient_Swatch_13" y1="517.898" y2="236.661"/><g id="_06-24hr" data-name="06-24hr"><g id="gradient"><g fill="#b8b8c7"><path d="m472 164a12 12 0 0 1 -8.485-20.485 87.433 87.433 0 0 0 18.334-31.02c7.375-22.933 1.206-44.469-18.334-64.01s-41.079-25.709-64.01-18.334a87.392 87.392 0 0 0 -31.047 18.362 12 12 0 0 1 -16.943-17 110.835 110.835 0 0 1 39.69-23.9c22.371-7.456 56.019-9.363 89.28 23.9s31.356 66.91 23.9 89.28a110.835 110.835 0 0 1 -23.9 39.69 11.958 11.958 0 0 1 -8.485 3.517z"/><path d="m39.979 163.993a11.925 11.925 0 0 1 -8.464-3.508 110.835 110.835 0 0 1 -23.9-39.69c-7.457-22.37-9.364-56.018 23.9-89.28s66.909-31.355 89.285-23.899a110.835 110.835 0 0 1 39.69 23.9 12 12 0 0 1 -16.97 16.97 87.433 87.433 0 0 0 -31.02-18.335c-22.932-7.375-44.468-1.207-64.01 18.334s-25.714 41.077-18.339 64.015a87.392 87.392 0 0 0 18.362 31.047 12.008 12.008 0 0 1 -8.534 20.451z"/><path d="m93.816 508.9c-18.778 0-40.621-6.738-62.3-28.419-33.263-33.262-31.356-66.91-23.9-89.28a110.835 110.835 0 0 1 23.9-39.69 12 12 0 0 1 16.97 16.97 87.433 87.433 0 0 0 -18.334 31.02c-7.375 22.933-1.206 44.469 18.334 64.01s41.08 25.709 64.01 18.334a87.392 87.392 0 0 0 31.047-18.362 12 12 0 0 1 16.943 17 110.835 110.835 0 0 1 -39.69 23.9 85.457 85.457 0 0 1 -26.98 4.517z"/><path d="m418.184 508.9a85.4 85.4 0 0 1 -26.979-4.52 110.835 110.835 0 0 1 -39.69-23.9 12 12 0 0 1 16.97-16.97 87.433 87.433 0 0 0 31.02 18.334c22.933 7.374 44.469 1.206 64.01-18.334s25.709-41.077 18.334-64.01a87.392 87.392 0 0 0 -18.362-31.047 12 12 0 0 1 17-16.943 110.835 110.835 0 0 1 23.9 39.69c7.457 22.37 9.364 56.018-23.9 89.28-21.68 21.684-43.526 28.42-62.303 28.42z"/></g><path d="m232 316h-64a12 12 0 0 1 -8.195-20.766c1.558-1.456 38.3-35.787 51.758-46.89 5.362-4.425 8.437-10.382 8.437-16.344a20 20 0 0 0 -40 0 12 12 0 0 1 -24 0 44 44 0 0 1 88 0c0 13.151-6.255 25.855-17.162 34.855-6.091 5.026-17.656 15.481-28.2 25.145h33.362a12 12 0 0 1 0 24z" fill="#80d1cb"/><path d="m320 324a12 12 0 0 1 -12-12v-20h-44a12 12 0 0 1 -9.831-18.881l56-80a12 12 0 0 1 21.831 6.881v68h12a12 12 0 0 1 0 24h-12v20a12 12 0 0 1 -12 12zm-32.952-56h20.952v-29.932z" fill="#80d1cb"/><path d="m434.191 77.809a252 252 0 0 0 -356.382 356.382 252 252 0 0 0 356.382-356.382zm-178.191 310.191c-72.785 0-132-59.215-132-132s59.215-132 132-132 132 59.215 132 132-59.215 132-132 132z" fill="url(#New_Gradient_Swatch_4)"/><path d="m478.449 137.337a254.8 254.8 0 0 0 -103.763-103.774l-.244-.128-64.928 101.911a132.8 132.8 0 0 1 67.14 67.14l101.911-64.928c-.039-.072-.077-.148-.116-.221z" fill="url(#New_Gradient_Swatch_13)"/><path d="m137.337 33.551a254.8 254.8 0 0 0 -103.774 103.763c-.042.08-.086.165-.128.244l101.911 64.928a132.8 132.8 0 0 1 67.14-67.14l-64.928-101.911c-.072.039-.148.077-.221.116z" fill="url(#New_Gradient_Swatch_13-2)"/><path d="m33.551 374.663a254.8 254.8 0 0 0 103.763 103.774l.244.128 64.928-101.911a132.8 132.8 0 0 1 -67.14-67.14l-101.911 64.928c.039.072.077.148.116.221z" fill="url(#New_Gradient_Swatch_13)"/><path d="m374.663 478.449a254.8 254.8 0 0 0 103.774-103.763c.042-.08.086-.165.128-.244l-101.911-64.928a132.8 132.8 0 0 1 -67.14 67.14l64.928 101.911c.072-.039.148-.077.221-.116z" fill="url(#New_Gradient_Swatch_13-4)"/></g></g></svg>