<svg id="Capa_1" enable-background="new 0 0 512 512" height="512" viewBox="0 0 512 512" width="512" xmlns="http://www.w3.org/2000/svg"><g><path d="m436 30h-75l-30 15h-75-75l-30-15h-75c-8.284 0-15 6.716-15 15v452c0 8.284 6.716 15 15 15h180 180c8.284 0 15-6.716 15-15v-452c0-8.284-6.716-15-15-15z" fill="#596c76"/><path d="m451 497v-452c0-8.284-6.716-15-15-15h-75l-30 15h-75v467h180c8.284 0 15-6.716 15-15z" fill="#465a61"/><path d="m256 60h-165v422h165 165v-422z" fill="#f2f2f2"/><path d="m256 60h165v422h-165z" fill="#daedff"/><path d="m298.246 30c-6.198-17.437-22.681-30-42.246-30s-36.048 12.563-42.246 30h-62.754v45c0 8.284 6.716 15 15 15h90 90c8.284 0 15-6.716 15-15v-45z" fill="#fe810d"/><path d="m361 75v-45h-62.754c-6.198-17.437-22.681-30-42.246-30v90h90c8.284 0 15-6.716 15-15z" fill="#ff495a"/><circle cx="256" cy="301" fill="#64e0db" r="120"/><path d="m376 301c0 66.299-53.699 120-120 120v-240c66.301 0 120 53.699 120 120z" fill="#00c7c7"/><path d="m312.235 261.64c-5.859-5.859-15.352-5.859-21.211 0l-35.024 35.024-14.37 14.37-19.395-19.395c-5.859-5.859-15.352-5.859-21.211 0s-5.859 15.352 0 21.211l30 30c2.93 2.93 6.768 4.395 10.605 4.395s7.676-1.465 10.605-4.395l3.765-3.765 56.235-56.235c5.861-5.859 5.861-15.351.001-21.21z" fill="#f2f2f2"/><path d="m312.235 261.64c-5.859-5.859-15.352-5.859-21.211 0l-35.024 35.024v42.422l56.235-56.235c5.86-5.86 5.86-15.352 0-21.211z" fill="#daedff"/></g></svg>