<svg height="512" viewBox="0 0 128 128" width="512" xmlns="http://www.w3.org/2000/svg"><g id="Book,-document,-note-icon" fill="none" fill-rule="nonzero"><path id="Shape" d="m100 10.9996649c3.785452 0 6.869099 3.0051185 6.995941 6.7596853l.004059.2406498v92c0 3.785452-3.004783 6.869099-6.75935 6.995941l-.24065.004059h-58v-106.0003351zm-70 89.0003351c2.209139 0 4 1.790861 4 4 0 2.142195-1.6839685 3.891079-3.8003597 3.995105l-.1996403.004895h-8c-2.209139 0-4-1.790861-4-4 0-2.142195 1.6839685-3.891079 3.8003597-3.995105l.1996403-.004895zm65 3h-44l-.1166211.006728c-.4973387.057765-.8833789.480436-.8833789.993272s.3860402.935507.8833789.993272l.1166211.006728h44l.1166211-.006728c.4973387-.057765.8833789-.480436.8833789-.993272s-.3860402-.935507-.8833789-.993272zm-65-23c2.209139 0 4 1.790861 4 4 0 2.1421954-1.6839685 3.8910789-3.8003597 3.9951047l-.1996403.0048953h-8c-2.209139 0-4-1.790861-4-4 0-2.1421954 1.6839685-3.8910789 3.8003597-3.9951047l.1996403-.0048953zm65 3h-44l-.1166211.0067277c-.4973387.0577651-.8833789.4804365-.8833789.9932723s.3860402.9355072.8833789.9932723l.1166211.0067277h44l.1166211-.0067277c.4973387-.0577651.8833789-.4804365.8833789-.9932723s-.3860402-.9355072-.8833789-.9932723zm-65-23c2.209139 0 4 1.790861 4 4 0 2.1421954-1.6839685 3.8910789-3.8003597 3.9951047l-.1996403.0048953h-8c-2.209139 0-4-1.790861-4-4 0-2.1421954 1.6839685-3.8910789 3.8003597-3.9951047l.1996403-.0048953zm65 3h-44l-.1166211.0067277c-.4973387.0577651-.8833789.4804365-.8833789.9932723s.3860402.9355072.8833789.9932723l.1166211.0067277h44l.1166211-.0067277c.4973387-.0577651.8833789-.4804365.8833789-.9932723s-.3860402-.9355072-.8833789-.9932723zm-65-23c2.209139 0 4 1.790861 4 4 0 2.1421954-1.6839685 3.8910789-3.8003597 3.9951047l-.1996403.0048953h-8c-2.209139 0-4-1.790861-4-4 0-2.1421954 1.6839685-3.8910789 3.8003597-3.9951047l.1996403-.0048953zm65 3h-44l-.1166211.0067277c-.4973387.0577651-.8833789.4804365-.8833789.9932723s.3860402.9355072.8833789.9932723l.1166211.0067277h44l.1166211-.0067277c.4973387-.0577651.8833789-.4804365.8833789-.9932723s-.3860402-.9355072-.8833789-.9932723zm-65-23c2.209139 0 4 1.790861 4 4 0 2.1421954-1.6839685 3.8910789-3.8003597 3.9951047l-.1996403.0048953h-8c-2.209139 0-4-1.790861-4-4 0-2.1421954 1.6839685-3.8910789 3.8003597-3.9951047l.1996403-.0048953zm65 3h-44l-.1166211.0067277c-.4973387.0577651-.8833789.4804365-.8833789.9932723s.3860402.9355072.8833789.9932723l.1166211.0067277h44l.1166211-.0067277c.4973387-.0577651.8833789-.4804365.8833789-.9932723s-.3860402-.9355072-.8833789-.9932723z" fill="#2eaff0"/><path id="Shape" d="m95 103c.5522847 0 1 .447715 1 1 0 .512836-.3860402.935507-.8833789.993272l-.1166211.006728h-44c-.5522847 0-1-.447715-1-1 0-.512836.3860402-.935507.8833789-.993272l.1166211-.006728zm0-20c.5522847 0 1 .4477153 1 1 0 .5128358-.3860402.9355072-.8833789.9932723l-.1166211.0067277h-44c-.5522847 0-1-.4477153-1-1 0-.5128358.3860402-.9355072.8833789-.9932723l.1166211-.0067277zm0-20c.5522847 0 1 .4477153 1 1 0 .5128358-.3860402.9355072-.8833789.9932723l-.1166211.0067277h-44c-.5522847 0-1-.4477153-1-1 0-.5128358.3860402-.9355072.8833789-.9932723l.1166211-.0067277zm0-20c.5522847 0 1 .4477153 1 1 0 .5128358-.3860402.9355072-.8833789.9932723l-.1166211.0067277h-44c-.5522847 0-1-.4477153-1-1 0-.5128358.3860402-.9355072.8833789-.9932723l.1166211-.0067277zm0-20c.5522847 0 1 .4477153 1 1 0 .5128358-.3860402.9355072-.8833789.9932723l-.1166211.0067277h-44c-.5522847 0-1-.4477153-1-1 0-.5128358.3860402-.9355072.8833789-.9932723l.1166211-.0067277zm-65 5 .1996403-.0048953c2.1163912-.1040258 3.8003597-1.8529093 3.8003597-3.9951047s-1.6839685-3.8910789-3.8003597-3.9951047l-.1996403-.0048953h-3v-2c0-3.7049102 2.8782805-6.737562 6.520737-6.9838508l.2386132-.0120902.2406498-.0043941h8v106.0003351h-8c-3.7854517 0-6.8690987-3.004783-6.995941-6.75935l-.004059-.24065v-2h3l.1996403-.004895c2.1163912-.104026 3.8003597-1.85291 3.8003597-3.995105s-1.6839685-3.891079-3.8003597-3.995105l-.1996403-.004895h-3v-12h3l.1996403-.0048953c2.1163912-.1040258 3.8003597-1.8529093 3.8003597-3.9951047s-1.6839685-3.8910789-3.8003597-3.9951047l-.1996403-.0048953h-3v-12h3l.1996403-.0048953c2.1163912-.1040258 3.8003597-1.8529093 3.8003597-3.9951047s-1.6839685-3.8910789-3.8003597-3.9951047l-.1996403-.0048953h-3v-12h3l.1996403-.0048953c2.1163912-.1040258 3.8003597-1.8529093 3.8003597-3.9951047s-1.6839685-3.8910789-3.8003597-3.9951047l-.1996403-.0048953h-3v-12z" fill="#a5e1ff"/></g></svg>