<svg id="Capa_1" enable-background="new 0 0 512 512" height="512" viewBox="0 0 512 512" width="512" xmlns="http://www.w3.org/2000/svg"><g><path d="m451 75v30c0 8.401-6.599 15-15 15s-15-6.599-15-15v-30c0-8.401 6.599-15 15-15s15 6.599 15 15z" fill="#4d6699"/><path d="m436 120v-60c8.401 0 15 6.599 15 15v30c0 8.401-6.599 15-15 15z" fill="#404b80"/><path d="m451 467v30c0 8.401-6.599 15-15 15s-15-6.599-15-15v-30c0-8.401 6.599-15 15-15s15 6.599 15 15z" fill="#4d6699"/><path d="m451 467v30c0 8.401-6.599 15-15 15v-60c8.401 0 15 6.599 15 15z" fill="#404b80"/><path d="m211 15v30c0 8.401-6.599 15-15 15s-15-6.599-15-15v-30c0-8.401 6.599-15 15-15s15 6.599 15 15z" fill="#4d6699"/><path d="m211 15v30c0 8.401-6.599 15-15 15v-60c8.401 0 15 6.599 15 15z" fill="#404b80"/><path d="m346 60h-150-150c-8.291 0-15 6.709-15 15v422c0 8.291 6.709 15 15 15h150 150c8.291 0 15-6.709 15-15v-422c0-8.291-6.709-15-15-15z" fill="#ffbe40"/><path d="m361 497v-422c0-8.291-6.709-15-15-15h-150v452h150c8.291 0 15-6.709 15-15z" fill="#ff9f40"/><path d="m241 90-23.289-15h-21.711-21.632l-23.368 15h-90v392h135 135v-392z" fill="#f9f4f3"/><path d="m331 90h-90l-23.289-15h-21.711v407h135z" fill="#f0e6e1"/><path d="m157.211 406 10.605-10.605c5.859-5.859 5.859-15.352 0-21.211s-15.352-5.859-21.211 0l-10.605 10.605-10.605-10.605c-5.859-5.859-15.352-5.859-21.211 0s-5.859 15.352 0 21.211l10.605 10.605-10.605 10.605c-5.859 5.859-5.859 15.352 0 21.211s15.351 5.86 21.211 0l10.605-10.605 10.605 10.605c5.859 5.859 15.351 5.86 21.211 0 5.859-5.859 5.859-15.352 0-21.211z" fill="#ff6673"/><g fill="#b3ccff"><path d="m286 241h-30c-8.291 0-15-6.709-15-15s6.709-15 15-15h30c8.291 0 15 6.709 15 15s-6.709 15-15 15z"/><path d="m286 331h-60c-8.291 0-15-6.709-15-15s6.709-15 15-15h60c8.291 0 15 6.709 15 15s-6.709 15-15 15z"/><path d="m286 421h-60c-8.291 0-15-6.709-15-15s6.709-15 15-15h60c8.291 0 15 6.709 15 15s-6.709 15-15 15z"/></g><path d="m125.395 236.605c2.93 2.93 6.768 4.395 10.605 4.395s7.676-1.465 10.605-4.395l49.395-49.394 10.605-10.605c5.859-5.859 5.859-15.352 0-21.211-2.93-2.93-6.768-4.395-10.605-4.395s-7.676 1.465-10.605 4.395l-49.395 49.394-19.395-19.395c-5.859-5.859-15.352-5.859-21.211 0s-5.859 15.352 0 21.211z" fill="#7ed96c"/><path d="m196 241c-3.838 0-7.676 1.465-10.605 4.395l-49.395 49.394-19.395-19.395c-5.859-5.859-15.352-5.859-21.211 0s-5.859 15.352 0 21.211l30 30c2.93 2.93 6.768 4.395 10.605 4.395s7.676-1.465 10.605-4.395l49.396-49.394 10.605-10.605c5.859-5.859 5.859-15.352 0-21.211-2.929-2.93-6.767-4.395-10.605-4.395z" fill="#7ed96c"/><path d="m206.605 155.395c-2.93-2.93-6.768-4.395-10.605-4.395v36.211l10.605-10.605c5.86-5.86 5.86-15.352 0-21.211z" fill="#48b348"/><path d="m206.605 245.395c-2.93-2.93-6.768-4.395-10.605-4.395v36.211l10.605-10.605c5.86-5.86 5.86-15.352 0-21.211z" fill="#48b348"/><path d="m226 30h-30-30c-16.569 0-30 13.431-30 30v15c0 8.284 6.716 15 15 15h45 45c8.284 0 15-6.716 15-15v-15c0-16.569-13.431-30-30-30z" fill="#4d6699"/><path d="m256 75v-15c0-16.569-13.431-30-30-30h-30v60h45c8.284 0 15-6.716 15-15z" fill="#404b80"/><path d="m481 271v122.701c0 30.899-12.599 61.899-34.501 83.798-2.699 3.001-6.599 4.501-10.499 4.501s-7.8-1.5-10.499-4.501c-21.902-21.899-34.501-52.899-34.501-83.798v-122.701l30-15h30z" fill="#cde2ff"/><path d="m481 271v122.701c0 30.899-12.599 61.899-34.501 83.798-2.699 3.001-6.599 4.501-10.499 4.501v-226h15z" fill="#b3ccff"/><path d="m481 136v105l-30 15h-30l-30-15v-105c0-24.901 20.099-46 45-46s45 21.099 45 46z" fill="#cde2ff"/><path d="m481 136v105l-30 15h-15v-166c24.901 0 45 21.099 45 46z" fill="#b3ccff"/><path d="m391 241h90v30h-90z" fill="#4d6699"/><path d="m436 241h45v30h-45z" fill="#404b80"/></g></svg>