<svg height="512" viewBox="0 0 32 32" width="512" xmlns="http://www.w3.org/2000/svg"><g id="paper"><path d="m28 10v19a1 1 0 0 1 -1 1h-22a1 1 0 0 1 -1-1v-26a1 1 0 0 1 1-1h17a1 1 0 0 1 .81.42l5 7a1 1 0 0 1 .19.58z" fill="#64b5f6"/><path d="m28 10v1h-7a1 1 0 0 1 -1-1v-8h2a1 1 0 0 1 .81.42l5 7a1 1 0 0 1 .19.58z" fill="#eee"/><path d="m20.75 19h-1.5a.5.5 0 0 1 0-1h3a1 1 0 0 0 0-2h-1.25v-1a1 1 0 0 0 -2 0v1a2.49 2.49 0 0 0 .25 5h1.5a.5.5 0 0 1 0 1h-3a1 1 0 0 0 0 2h1.25v1a1 1 0 0 0 2 0v-1a2.49 2.49 0 0 0 -.25-5z" fill="#eee"/><g fill="#1976d2"><path d="m15 9h-7a1 1 0 0 1 0-2h7a1 1 0 0 1 0 2z"/><path d="m15 13h-7a1 1 0 0 1 0-2h7a1 1 0 0 1 0 2z"/><path d="m15 17h-7a1 1 0 0 1 0-2h7a1 1 0 0 1 0 2z"/></g></g></svg>