<svg id="Layer_1" enable-background="new 0 0 64 64" height="512" viewBox="0 0 64 64" width="512" xmlns="http://www.w3.org/2000/svg"><g><g clip-rule="evenodd" fill="#e9c845" fill-rule="evenodd"><path d="m47.108 56.453c1.758 0 3.232-1.446 3.232-3.231s-1.474-3.231-3.232-3.231c-1.786 0-3.231 1.446-3.231 3.231s1.446 3.231 3.231 3.231z"/><path d="m27.606 56.453c1.757 0 3.231-1.446 3.231-3.231s-1.474-3.231-3.231-3.231c-1.786 0-3.232 1.446-3.232 3.231s1.446 3.231 3.232 3.231z"/></g><g clip-rule="evenodd" fill-rule="evenodd"><path d="m14.964 14.613h45.042l-5.159 26.731h-34.724z" fill="#e9c845"/><path d="m14.964 14.613h5.783l5.158 26.731h-5.782z" fill="#e3ba16"/></g><g><path d="m55.612 47.73h-35.234l-7.428-38.183h-8.956v-2h10.602l7.425 38.183h33.591z"/></g></g></svg>